<mxfile host="app.diagrams.net" modified="2024-02-23T11:30:11.136Z" agent="Mozilla/5.0 (Windows NT 10.0; Win64; x64; rv:122.0) Gecko/20100101 Firefox/122.0" etag="UMmyz6H_SVLkIW7cVH8S" version="23.1.5" type="github">
  <diagram name="CurrentLab" id="Jbqr5Dxl-pRA24dLQ1eh">
    <mxGraphModel dx="790" dy="410" grid="1" gridSize="10" guides="1" tooltips="1" connect="1" arrows="1" fold="1" page="1" pageScale="1" pageWidth="1654" pageHeight="1169" math="0" shadow="0">
      <root>
        <mxCell id="0" />
        <mxCell id="1" parent="0" />
        <mxCell id="OfQm7ZqquYTvh86KPJ6x-1" value="" style="strokeColor=#666666;html=1;verticalLabelPosition=bottom;labelBackgroundColor=#ffffff;verticalAlign=top;outlineConnect=0;shadow=0;dashed=0;shape=mxgraph.rackGeneral.rackCabinet3;fillColor2=#f4f4f4;container=1;collapsible=0;childLayout=rack;allowGaps=1;marginLeft=33;marginRight=9;marginTop=21;marginBottom=22;textColor=#666666;numDisp=ascend;rackUnitSize=20;" vertex="1" parent="1">
          <mxGeometry x="320" y="160" width="204" height="170" as="geometry" />
        </mxCell>
        <mxCell id="OfQm7ZqquYTvh86KPJ6x-2" value="" style="strokeColor=#666666;html=1;labelPosition=right;align=left;spacingLeft=15;shadow=0;dashed=0;outlineConnect=0;shape=mxgraph.rack.general.cat5e_rack_mount_patch_panel_24_ports;" vertex="1" parent="OfQm7ZqquYTvh86KPJ6x-1">
          <mxGeometry x="33" y="21" width="162" height="20" as="geometry" />
        </mxCell>
        <mxCell id="OfQm7ZqquYTvh86KPJ6x-3" value="" style="strokeColor=#666666;html=1;labelPosition=right;align=left;spacingLeft=15;shadow=0;dashed=0;outlineConnect=0;shape=mxgraph.rackGeneral.shelf;container=1;collapsible=0" vertex="1" parent="OfQm7ZqquYTvh86KPJ6x-1">
          <mxGeometry x="33" y="41" width="162" height="20" as="geometry" />
        </mxCell>
        <mxCell id="OfQm7ZqquYTvh86KPJ6x-7" value="" style="html=1;verticalLabelPosition=bottom;verticalAlign=top;outlineConnect=0;shadow=0;dashed=0;shape=mxgraph.rack.hpe_aruba.switches.j993a_8_port_1g_10gbe_sfpplus_with_macsec_v3_zl2_module;" vertex="1" parent="OfQm7ZqquYTvh86KPJ6x-3">
          <mxGeometry x="3" y="2" width="75" height="15" as="geometry" />
        </mxCell>
        <mxCell id="OfQm7ZqquYTvh86KPJ6x-8" value="" style="strokeColor=#666666;html=1;verticalLabelPosition=bottom;labelBackgroundColor=#ffffff;verticalAlign=top;outlineConnect=0;shadow=0;dashed=0;shape=mxgraph.rack.general.server_1;" vertex="1" parent="OfQm7ZqquYTvh86KPJ6x-3">
          <mxGeometry x="97" width="33" height="17" as="geometry" />
        </mxCell>
        <mxCell id="OfQm7ZqquYTvh86KPJ6x-9" value="" style="rounded=1;whiteSpace=wrap;html=1;fillColor=#f5f5f5;fontColor=#333333;strokeColor=#666666;dashed=1;" vertex="1" parent="1">
          <mxGeometry x="840" y="201" width="280" height="159" as="geometry" />
        </mxCell>
        <mxCell id="OfQm7ZqquYTvh86KPJ6x-10" value="" style="rounded=1;whiteSpace=wrap;html=1;" vertex="1" parent="1">
          <mxGeometry x="820" y="210" width="320" height="40" as="geometry" />
        </mxCell>
        <mxCell id="OfQm7ZqquYTvh86KPJ6x-11" value="SvenJagerHarpi3" style="text;html=1;align=left;verticalAlign=middle;whiteSpace=wrap;rounded=0;fontFamily=Helvetica;fontStyle=1" vertex="1" parent="1">
          <mxGeometry x="880" y="210" width="110" height="20" as="geometry" />
        </mxCell>
        <mxCell id="OfQm7ZqquYTvh86KPJ6x-12" value="192.168.2.22" style="text;html=1;align=left;verticalAlign=middle;whiteSpace=wrap;rounded=0;fontSize=7;fontFamily=Helvetica;" vertex="1" parent="1">
          <mxGeometry x="880" y="229" width="60" height="10" as="geometry" />
        </mxCell>
      </root>
    </mxGraphModel>
  </diagram>
</mxfile>
